# 3ds Max Wavefront OBJ Exporter v0.97b - (c)2007 guruware
# File Created: 18.05.2013 01:32:14

mtllib missile.mtl

#
# object Cylinder001
#

v  16.2232 10.8382 -741.0966
v  64.3422 45.7987 -700.3622
v  79.2231 -0.0000 -700.3623
v  19.7448 -0.0000 -741.0966
v  7.0037 17.5366 -741.0966
v  25.3835 74.1038 -700.3622
v  -4.3923 17.5366 -741.0966
v  -22.7721 74.1038 -700.3622
v  -13.6118 10.8382 -741.0966
v  -61.7308 45.7987 -700.3622
v  -17.1334 -0.0000 -741.0966
v  -76.6117 -0.0000 -700.3622
v  -13.6118 -10.8382 -741.0966
v  -61.7308 -45.7987 -700.3622
v  -4.3923 -17.5366 -741.0966
v  -22.7721 -74.1038 -700.3622
v  7.0037 -17.5366 -741.0966
v  25.3835 -74.1038 -700.3622
v  16.2232 -10.8382 -741.0966
v  64.3422 -45.7987 -700.3622
v  74.5314 53.2014 1180.3213
v  29.2754 -86.0820 1180.3213
v  74.5314 -53.2016 1180.3213
v  91.8176 -0.0001 1180.3213
v  91.8176 -0.0000 -635.4622
v  74.5314 53.2015 -635.4621
v  29.2754 86.0818 1180.3213
v  29.2754 86.0819 -635.4621
v  -26.6640 86.0818 1180.3213
v  -26.6640 86.0819 -635.4621
v  -71.9199 53.2014 1180.3213
v  -71.9199 53.2015 -635.4621
v  -89.2061 -0.0001 1180.3213
v  -89.2061 -0.0000 -635.4621
v  -71.9199 -53.2017 1180.3213
v  -71.9199 -53.2016 -635.4621
v  -26.6640 -86.0820 1180.3213
v  -26.6640 -86.0819 -635.4621
v  29.2754 -86.0819 -635.4621
v  74.5314 -53.2015 -635.4621
v  13.7511 84.8917 870.2994
v  -0.3585 258.6667 945.8756
v  -0.3585 258.6667 1069.5979
v  13.7511 84.8917 1068.7166
v  -14.4681 84.8917 870.2994
v  -14.4682 84.8917 1068.7166
v  13.7512 84.8917 108.3108
v  -0.3585 238.5986 169.2372
v  -0.3585 238.5986 344.7135
v  13.7511 84.8917 405.6399
v  -14.4681 84.8917 108.3108
v  -14.4681 84.8917 405.6399
v  -14.0563 -83.4188 870.2994
v  0.0533 -257.1938 945.8756
v  0.0533 -257.1938 1069.5979
v  -14.0563 -83.4188 1068.7166
v  14.1629 -83.4188 870.2994
v  14.1629 -83.4188 1068.7166
v  -82.9082 12.3051 870.2994
v  -256.6832 -1.8046 945.8756
v  -256.6832 -1.8045 1069.5979
v  -82.9082 12.3051 1068.7166
v  -82.9082 -15.9142 870.2994
v  -82.9082 -15.9142 1068.7166
v  86.3378 -15.5024 870.2996
v  260.1128 -1.3928 945.8757
v  260.1128 -1.3928 1069.5979
v  86.3378 -15.5024 1068.7168
v  86.3378 12.7168 870.2996
v  86.3378 12.7169 1068.7168
v  86.3378 -13.9002 108.3108
v  240.0447 0.2094 169.2372
v  240.0447 0.2094 344.7135
v  86.3378 -13.9002 405.6399
v  86.3378 14.3190 108.3108
v  86.3378 14.3190 405.6399
v  -83.6954 13.9072 108.3108
v  -237.4023 -0.2024 169.2372
v  -237.4023 -0.2024 344.7135
v  -83.6955 13.9072 405.6399
v  -83.6954 -14.3120 108.3108
v  -83.6955 -14.3120 405.6399
v  -14.0563 -84.3053 108.3108
v  0.0534 -238.0122 169.2372
v  0.0533 -238.0122 344.7135
v  -14.0563 -84.3053 405.6399
v  14.1630 -84.3053 108.3108
v  14.1629 -84.3053 405.6399
# 88 vertices

vn 0.2813 0.2044 -0.9376
vn 0.6925 0.5031 -0.5170
vn 0.8560 0.0000 -0.5170
vn 0.3477 0.0000 -0.9376
vn 0.1074 0.3307 -0.9376
vn 0.2645 0.8141 -0.5170
vn -0.1074 0.3307 -0.9376
vn -0.2645 0.8141 -0.5170
vn -0.2813 0.2044 -0.9376
vn -0.6925 0.5031 -0.5170
vn -0.3477 0.0000 -0.9376
vn -0.8560 -0.0000 -0.5170
vn -0.2813 -0.2044 -0.9376
vn -0.6925 -0.5031 -0.5170
vn -0.1074 -0.3307 -0.9376
vn -0.2645 -0.8141 -0.5170
vn 0.1074 -0.3307 -0.9376
vn 0.2645 -0.8141 -0.5170
vn 0.2813 -0.2044 -0.9376
vn 0.6925 -0.5031 -0.5170
vn 0.0000 -0.0000 1.0000
vn 0.8090 0.5878 0.0000
vn 1.0000 0.0000 0.0000
vn 0.9956 0.0000 -0.0939
vn 0.8054 0.5852 -0.0939
vn 0.3090 0.9511 0.0000
vn 0.3077 0.9469 -0.0939
vn -0.3090 0.9511 0.0000
vn -0.3077 0.9469 -0.0939
vn -0.8090 0.5878 0.0000
vn -0.8054 0.5852 -0.0939
vn -1.0000 -0.0000 -0.0000
vn -0.9956 -0.0000 -0.0939
vn -0.8090 -0.5878 -0.0000
vn -0.8054 -0.5852 -0.0939
vn -0.3090 -0.9511 -0.0000
vn -0.3077 -0.9469 -0.0939
vn 0.3090 -0.9511 -0.0000
vn 0.3077 -0.9469 -0.0939
vn 0.8090 -0.5878 -0.0000
vn 0.8054 -0.5852 -0.0939
vn 0.9967 0.0809 0.0000
vn -0.9967 0.0809 -0.0000
vn 0.0000 -0.0051 1.0000
vn 0.0000 0.3988 -0.9170
vn 0.9958 0.0914 0.0000
vn -0.9958 0.0914 -0.0000
vn 0.0000 0.3685 0.9296
vn 0.0000 0.3685 -0.9296
vn -0.9967 -0.0809 -0.0000
vn 0.9967 -0.0809 0.0000
vn 0.0000 0.0051 1.0000
vn 0.0000 -0.3988 -0.9170
vn -0.0809 0.9967 -0.0000
vn -0.0809 0.9967 0.0000
vn -0.0809 -0.9967 0.0000
vn -0.0809 -0.9967 -0.0000
vn 0.0051 -0.0000 1.0000
vn -0.3988 0.0000 -0.9170
vn 0.0809 -0.9967 -0.0000
vn 0.0809 -0.9967 0.0000
vn 0.0809 0.9967 0.0000
vn 0.0809 0.9967 -0.0000
vn -0.0051 -0.0000 1.0000
vn 0.3988 0.0000 -0.9170
vn 0.0914 -0.9958 -0.0000
vn 0.0914 -0.9958 0.0000
vn 0.0914 0.9958 0.0000
vn 0.3685 -0.0000 0.9296
vn 0.3685 0.0000 -0.9296
vn -0.0914 0.9958 -0.0000
vn -0.0914 -0.9958 0.0000
vn -0.0914 -0.9958 -0.0000
vn -0.3685 -0.0000 0.9296
vn -0.3685 0.0000 -0.9296
vn -0.9958 -0.0914 -0.0000
vn 0.9958 -0.0914 0.0000
vn 0.0000 -0.3685 0.9296
vn 0.0000 -0.3685 -0.9296
# 79 vertex normals

vt 0.2018 0.7890 0.0000
vt 0.2018 0.7629 0.0000
vt 0.3003 0.7629 -0.0000
vt 0.3003 0.7890 -0.0000
vt 0.1033 0.7890 0.0000
vt 0.1033 0.7629 0.0000
vt 0.0048 0.7890 -0.0000
vt 0.0048 0.7629 -0.0000
vt 0.8914 0.7890 -0.0000
vt 0.8914 0.7629 -0.0000
vt 0.9899 0.7629 -0.0000
vt 0.9899 0.7890 -0.0000
vt 0.7929 0.7890 -0.0000
vt 0.7929 0.7629 -0.0000
vt 0.6944 0.7890 0.0000
vt 0.6944 0.7629 0.0000
vt 0.5959 0.7890 -0.0000
vt 0.5959 0.7629 -0.0000
vt 0.4974 0.7890 -0.0000
vt 0.4974 0.7629 -0.0000
vt 0.3989 0.7890 -0.0000
vt 0.3989 0.7629 -0.0000
vt 0.3221 0.8767 0.0000
vt 0.2949 0.8767 0.0000
vt 0.3525 0.9186 0.0000
vt 0.3441 0.8927 0.0000
vt 0.2110 0.9527 0.0000
vt 0.1629 0.8048 0.0000
vt 0.2110 0.8397 0.0000
vt 0.2293 0.8962 0.0000
vt 0.2018 0.0067 0.0000
vt 0.3003 0.0067 -0.0000
vt 0.3003 0.7401 -0.0000
vt 0.2018 0.7401 0.0000
vt 0.1033 0.0067 0.0000
vt 0.1033 0.7401 0.0000
vt 0.0048 0.0067 -0.0000
vt 0.0048 0.7401 -0.0000
vt 0.8914 0.0067 -0.0000
vt 0.9899 0.0067 -0.0000
vt 0.9899 0.7401 -0.0000
vt 0.8914 0.7401 -0.0000
vt 0.7929 0.0067 -0.0000
vt 0.7929 0.7401 -0.0000
vt 0.6944 0.0067 0.0000
vt 0.6944 0.7401 0.0000
vt 0.5959 0.0067 -0.0000
vt 0.5959 0.7401 -0.0000
vt 0.4974 0.0067 -0.0000
vt 0.4974 0.7401 -0.0000
vt 0.3989 0.0067 -0.0000
vt 0.3989 0.7401 -0.0000
vt 0.2729 0.8927 0.0000
vt 0.2645 0.9186 0.0000
vt 0.2729 0.9444 0.0000
vt 0.2949 0.9604 0.0000
vt 0.3221 0.9604 0.0000
vt 0.3441 0.9444 0.0000
vt 0.0554 0.8397 0.0000
vt 0.1035 0.8048 0.0000
vt 0.0370 0.8962 0.0000
vt 0.0554 0.9527 0.0000
vt 0.1035 0.9877 0.0000
vt 0.1629 0.9877 0.0000
vt 0.4104 0.8442 0.0000
vt 0.5296 0.8443 0.0000
vt 0.5217 0.9555 0.0000
vt 0.4104 0.9555 0.0000
vt 0.6495 0.8445 0.0000
vt 0.6494 0.9558 0.0000
vt 0.5381 0.9725 0.0000
vt 0.6494 0.9896 0.0000
vt 0.5374 0.8137 0.0000
vt 0.6488 0.8137 0.0000
vt 0.7355 0.8442 0.0000
vt 0.8547 0.8443 0.0000
vt 0.8468 0.9555 0.0000
vt 0.7355 0.9555 0.0000
vt 0.9746 0.8445 0.0000
vt 0.9745 0.9558 0.0000
vt 0.8632 0.9725 0.0000
vt 0.9745 0.9896 0.0000
vt 0.8625 0.8137 0.0000
vt 0.9739 0.8137 0.0000
# 84 texture coords

g Cylinder001
usemtl 04___Default
s 1
f 1/1/1 2/2/2 3/3/3 4/4/4 
f 5/5/5 6/6/6 2/2/2 1/1/1 
f 7/7/7 8/8/8 6/6/6 5/5/5 
f 9/9/9 10/10/10 8/11/8 7/12/7 
f 11/13/11 12/14/12 10/10/10 9/9/9 
f 13/15/13 14/16/14 12/14/12 11/13/11 
f 15/17/15 16/18/16 14/16/14 13/15/13 
f 17/19/17 18/20/18 16/18/16 15/17/15 
f 19/21/19 20/22/20 18/20/18 17/19/17 
f 4/4/4 3/3/3 20/22/20 19/21/19 
f 17/23/17 15/24/15 4/25/4 19/26/19 
s 2
f 21/27/21 22/28/21 23/29/21 24/30/21 
s 1
f 21/31/22 24/32/23 25/33/24 26/34/25 
f 27/35/26 21/31/22 26/34/25 28/36/27 
f 29/37/28 27/35/26 28/36/27 30/38/29 
f 31/39/30 29/40/28 30/41/29 32/42/31 
f 33/43/32 31/39/30 32/42/31 34/44/33 
f 35/45/34 33/43/32 34/44/33 36/46/35 
f 37/47/36 35/45/34 36/46/35 38/48/37 
f 22/49/38 37/47/36 38/48/37 39/50/39 
f 23/51/40 22/49/38 39/50/39 40/52/41 
f 24/32/23 23/51/40 40/52/41 25/33/24 
f 26/34/25 25/33/24 3/3/3 2/2/2 
f 28/36/27 26/34/25 2/2/2 6/6/6 
f 30/38/29 28/36/27 6/6/6 8/8/8 
f 32/42/31 30/41/29 8/11/8 10/10/10 
f 34/44/33 32/42/31 10/10/10 12/14/12 
f 36/46/35 34/44/33 12/14/12 14/16/14 
f 38/48/37 36/46/35 14/16/14 16/18/16 
f 39/50/39 38/48/37 16/18/16 18/20/18 
f 40/52/41 39/50/39 18/20/18 20/22/20 
f 25/33/24 40/52/41 20/22/20 3/3/3 
f 13/53/13 11/54/11 9/55/9 15/24/15 
f 15/24/15 9/55/9 7/56/7 
f 15/24/15 7/56/7 5/57/5 
f 15/24/15 5/57/5 1/58/1 
f 15/24/15 1/58/1 4/25/4 
s 2
f 35/59/21 37/60/21 22/28/21 33/61/21 
f 31/62/21 33/61/21 22/28/21 
f 29/63/21 31/62/21 22/28/21 
f 27/64/21 29/63/21 22/28/21 
f 21/27/21 27/64/21 22/28/21 
s 1
f 41/65/42 42/66/42 43/67/42 44/68/42 
s 2
f 45/69/43 46/70/43 43/71/43 42/66/43 
s 4
f 44/72/44 43/71/44 46/70/44 
f 42/73/45 41/74/45 45/69/45 
s 1
f 47/75/46 48/76/46 49/77/46 50/78/46 
s 2
f 51/79/47 52/80/47 49/81/47 48/76/47 
s 4
f 50/82/48 49/81/48 52/80/48 
f 48/83/49 47/84/49 51/79/49 
s 2
f 53/65/50 54/66/50 55/67/50 56/68/50 
s 4
f 57/69/51 58/70/51 55/71/51 54/66/51 
s 16
f 56/72/52 55/71/52 58/70/52 
s 64
f 54/73/53 53/74/53 57/69/53 
s 2
f 59/65/54 60/66/54 61/67/54 62/68/55 
s 4
f 63/69/56 64/70/57 61/71/56 60/66/56 
s 16
f 62/72/58 61/71/58 64/70/58 
s 64
f 60/73/59 59/74/59 63/69/59 
s 2
f 65/65/60 66/66/60 67/67/60 68/68/61 
s 4
f 69/69/62 70/70/63 67/71/62 66/66/62 
s 16
f 68/72/64 67/71/64 70/70/64 
s 64
f 66/73/65 65/74/65 69/69/65 
s 2
f 71/75/66 72/76/66 73/77/66 74/78/67 
s 4
f 75/79/68 76/80/68 73/81/68 72/76/68 
s 16
f 74/82/69 73/81/69 76/80/69 
s 64
f 72/83/70 71/84/70 75/79/70 
s 2
f 77/75/71 78/76/71 79/77/71 80/78/71 
s 4
f 81/79/72 82/80/73 79/81/72 78/76/72 
s 16
f 80/82/74 79/81/74 82/80/74 
s 64
f 78/83/75 77/84/75 81/79/75 
s 2
f 83/75/76 84/76/76 85/77/76 86/78/76 
s 4
f 87/79/77 88/80/77 85/81/77 84/76/77 
s 16
f 86/82/78 85/81/78 88/80/78 
s 64
f 84/83/79 83/84/79 87/79/79 
# 50 polygons - 24 triangles

